<svg xmlns="http://www.w3.org/2000/svg" xml:space="preserve" width="1200px" height="150px" version="1.1" style="shape-rendering:geometricPrecision; text-rendering:geometricPrecision; image-rendering:optimizeQuality; fill-rule:evenodd; clip-rule:evenodd" viewBox="0 0 1200 150" xmlns:xlink="http://www.w3.org/1999/xlink">
 <g id="Layer_x0020_1">
  <metadata id="CorelCorpID_0Corel-Layer"/>
  <rect fill="#f0f0f0" width="1199" height="150"/>
  <path fill="#222222" d="M85.85 80.8c-12.05,-3.48 -20.83,-7.75 -26.33,-12.8 -5.5,-5.05 -8.25,-11.3 -8.25,-18.73 0,-8.4 3.38,-15.35 10.08,-20.85 6.72,-5.5 15.45,-8.25 26.17,-8.25 7.33,0 13.88,1.43 19.6,4.25 5.75,2.83 10.18,6.73 13.33,11.73 3.15,4.97 4.72,10.42 4.72,16.32l-14.12 0c0,-6.45 -2.05,-11.52 -6.15,-15.22 -4.1,-3.68 -9.9,-5.53 -17.38,-5.53 -6.92,0 -12.32,1.53 -16.2,4.58 -3.9,3.07 -5.82,7.3 -5.82,12.72 0,4.35 1.82,8.05 5.52,11.05 3.68,3 9.95,5.75 18.83,8.25 8.85,2.5 15.8,5.25 20.8,8.25 5,3 8.7,6.5 11.12,10.53 2.43,4 3.63,8.72 3.63,14.15 0,8.65 -3.38,15.57 -10.1,20.77 -6.75,5.2 -15.75,7.8 -27.03,7.8 -7.32,0 -14.17,-1.4 -20.52,-4.2 -6.33,-2.82 -11.23,-6.67 -14.68,-11.55 -3.45,-4.87 -5.15,-10.42 -5.15,-16.62l14.13 0c0,6.42 2.37,11.5 7.15,15.22 4.75,3.73 11.1,5.6 19.07,5.6 7.43,0 13.1,-1.52 17.05,-4.55 3.98,-3.02 5.95,-7.15 5.95,-12.35 0,-5.22 -1.85,-9.27 -5.5,-12.12 -3.65,-2.85 -10.3,-5.68 -19.92,-8.45z"/>
  <polygon id="1" fill="#222222" points="262.55,128.32 248.42,128.32 194.72,46.15 194.72,128.32 180.6,128.32 180.6,21.67 194.72,21.67 248.55,104.22 248.55,21.67 262.55,21.67 "/>
  <path id="2" fill="#222222" d="M383.5 100.42l-44.7 0 -10.03 27.9 -14.5 0 40.73 -106.65 12.3 0 40.8 106.65 -14.43 0 -10.17 -27.9zm-40.45 -11.55l36.27 0 -18.17 -49.85 -18.1 49.85z"/>
  <path id="3" fill="#222222" d="M473.67 86.62l0 41.7 -14.05 0 0 -106.65 39.33 0c11.67,0 20.8,2.98 27.42,8.95 6.63,5.95 9.93,13.85 9.93,23.68 0,10.35 -3.23,18.32 -9.7,23.92 -6.48,5.6 -15.75,8.4 -27.8,8.4l-25.13 0zm0 -11.55l25.28 0c7.52,0 13.27,-1.77 17.27,-5.32 4,-3.53 6,-8.65 6,-15.35 0,-6.35 -2,-11.43 -6,-15.25 -4,-3.8 -9.5,-5.78 -16.47,-5.93l-26.08 0 0 41.85z"/>
  <path id="4" fill="#222222" d="M622.75 80.8c-12.05,-3.48 -20.82,-7.75 -26.33,-12.8 -5.49,-5.05 -8.25,-11.3 -8.25,-18.73 0,-8.4 3.38,-15.35 10.08,-20.85 6.72,-5.5 15.45,-8.25 26.18,-8.25 7.32,0 13.87,1.43 19.6,4.25 5.75,2.83 10.17,6.73 13.32,11.73 3.15,4.97 4.73,10.42 4.73,16.32l-14.13 0c0,-6.45 -2.05,-11.52 -6.15,-15.22 -4.1,-3.68 -9.9,-5.53 -17.37,-5.53 -6.93,0 -12.33,1.53 -16.2,4.58 -3.9,3.07 -5.83,7.3 -5.83,12.72 0,4.35 1.82,8.05 5.53,11.05 3.67,3 9.94,5.75 18.82,8.25 8.85,2.5 15.8,5.25 20.8,8.25 5,3 8.7,6.5 11.12,10.53 2.43,4 3.63,8.72 3.63,14.15 0,8.65 -3.37,15.57 -10.1,20.77 -6.75,5.2 -15.75,7.8 -27.02,7.8 -7.33,0 -14.18,-1.4 -20.53,-4.2 -6.32,-2.82 -11.23,-6.67 -14.68,-11.55 -3.45,-4.87 -5.14,-10.42 -5.14,-16.62l14.12 0c0,6.42 2.38,11.5 7.15,15.22 4.75,3.73 11.1,5.6 19.08,5.6 7.42,0 13.09,-1.52 17.05,-4.55 3.97,-3.02 5.94,-7.15 5.94,-12.35 0,-5.22 -1.84,-9.27 -5.49,-12.12 -3.66,-2.85 -10.3,-5.68 -19.93,-8.45z"/>
  <polygon id="5" fill="#222222" points="788.23,33.22 753.95,33.22 753.95,128.32 739.97,128.32 739.97,33.22 705.77,33.22 705.77,21.67 788.23,21.67 "/>
  <polygon id="6" fill="#222222" points="870.77,75.22 898.6,21.67 914.57,21.67 877.8,88.55 877.8,128.32 863.75,128.32 863.75,88.55 826.97,21.67 843.1,21.67 "/>
  <polygon id="7" fill="#222222" points="979.63,116.77 1030.15,116.77 1030.15,128.32 965.48,128.32 965.48,21.67 979.63,21.67 "/>
  <polygon id="8" fill="#222222" points="1143.6,79.12 1097.4,79.12 1097.4,116.77 1151.08,116.77 1151.08,128.32 1083.33,128.32 1083.33,21.67 1150.35,21.67 1150.35,33.22 1097.4,33.22 1097.4,67.57 1143.6,67.57 "/>
 </g>
</svg>